<svg xmlns="http://www.w3.org/2000/svg" version="1.1" xmlns:xlink="http://www.w3.org/1999/xlink" xmlns:svgjs="http://svgjs.dev/svgjs" width="1440" height="560" preserveAspectRatio="none" viewBox="0 0 1440 560"><g mask="url(&quot;#SvgjsMask1002&quot;)" fill="none"><g mask="url(&quot;#SvgjsMask1003&quot;)"><path d="M52.5 297.5L87.5 332.5L122.5 332.5M157.5 297.5L192.5 262.5L227.5 262.5M367.5 297.5L402.5 332.5L437.5 332.5M-17.5 297.5L17.5 297.5L52.5 297.5L87.5 297.5L122.5 297.5L157.5 297.5L192.5 297.5L227.5 297.5L262.5 297.5L297.5 297.5L332.5 297.5L367.5 297.5L402.5 297.5" stroke="rgba(255, 255, 255, 1)" stroke-width="5.83"></path><path d="M393.75 297.5 a8.75 8.75 0 1 0 17.5 0 a8.75 8.75 0 1 0 -17.5 0zM113.75 332.5 a8.75 8.75 0 1 0 17.5 0 a8.75 8.75 0 1 0 -17.5 0zM218.75 262.5 a8.75 8.75 0 1 0 17.5 0 a8.75 8.75 0 1 0 -17.5 0zM428.75 332.5 a8.75 8.75 0 1 0 17.5 0 a8.75 8.75 0 1 0 -17.5 0z" fill="rgba(255, 255, 255, 1)"></path><path d="M52.5 262.5L87.5 262.5L122.5 262.5M-17.5 262.5L17.5 262.5L52.5 262.5L87.5 227.5L122.5 227.5" stroke="rgba(248, 248, 248, 1)" stroke-width="5.83"></path><path d="M113.75 227.5 a8.75 8.75 0 1 0 17.5 0 a8.75 8.75 0 1 0 -17.5 0zM113.75 262.5 a8.75 8.75 0 1 0 17.5 0 a8.75 8.75 0 1 0 -17.5 0z" fill="rgba(248, 248, 248, 1)"></path><path d="M192.5 367.5L227.5 332.5L262.5 332.5M262.5 367.5L297.5 367.5L332.5 367.5L367.5 367.5L402.5 367.5M157.5 367.5L192.5 332.5M-17.5 332.5L17.5 367.5L52.5 367.5L87.5 367.5L122.5 367.5L157.5 367.5L192.5 367.5L227.5 367.5L262.5 367.5L297.5 402.5" stroke="rgba(248, 248, 248, 1)" stroke-width="5.83"></path><path d="M288.75 402.5 a8.75 8.75 0 1 0 17.5 0 a8.75 8.75 0 1 0 -17.5 0zM253.75 332.5 a8.75 8.75 0 1 0 17.5 0 a8.75 8.75 0 1 0 -17.5 0zM393.75 367.5 a8.75 8.75 0 1 0 17.5 0 a8.75 8.75 0 1 0 -17.5 0zM183.75 332.5 a8.75 8.75 0 1 0 17.5 0 a8.75 8.75 0 1 0 -17.5 0z" fill="rgba(248, 248, 248, 1)"></path><path d="M-17.5 227.5L17.5 227.5L52.5 227.5L87.5 192.5L122.5 192.5" stroke="rgba(248, 248, 248, 1)" stroke-width="5.83"></path><path d="M113.75 192.5 a8.75 8.75 0 1 0 17.5 0 a8.75 8.75 0 1 0 -17.5 0z" fill="rgba(248, 248, 248, 1)"></path><path d="M367.5 437.5L402.5 402.5L437.5 402.5L472.5 402.5L507.5 402.5L542.5 402.5M507.5 437.5L542.5 472.5M297.5 437.5L332.5 472.5L367.5 472.5L402.5 472.5L437.5 472.5M192.5 402.5L227.5 437.5L262.5 437.5L297.5 472.5L332.5 507.5M612.5 437.5L647.5 472.5M-17.5 367.5L17.5 402.5L52.5 402.5L87.5 402.5L122.5 402.5L157.5 402.5L192.5 402.5L227.5 402.5L262.5 402.5L297.5 437.5L332.5 437.5L367.5 437.5L402.5 437.5L437.5 437.5L472.5 437.5L507.5 437.5L542.5 437.5L577.5 437.5L612.5 437.5L647.5 437.5" stroke="rgba(248, 248, 248, 1)" stroke-width="5.83"></path><path d="M638.75 437.5 a8.75 8.75 0 1 0 17.5 0 a8.75 8.75 0 1 0 -17.5 0zM533.75 402.5 a8.75 8.75 0 1 0 17.5 0 a8.75 8.75 0 1 0 -17.5 0zM533.75 472.5 a8.75 8.75 0 1 0 17.5 0 a8.75 8.75 0 1 0 -17.5 0zM428.75 472.5 a8.75 8.75 0 1 0 17.5 0 a8.75 8.75 0 1 0 -17.5 0zM323.75 507.5 a8.75 8.75 0 1 0 17.5 0 a8.75 8.75 0 1 0 -17.5 0zM638.75 472.5 a8.75 8.75 0 1 0 17.5 0 a8.75 8.75 0 1 0 -17.5 0z" fill="rgba(248, 248, 248, 1)"></path><path d="M-17.5 192.5L17.5 192.5L52.5 192.5L87.5 157.5L122.5 157.5" stroke="rgba(248, 248, 248, 1)" stroke-width="5.83"></path><path d="M113.75 157.5 a8.75 8.75 0 1 0 17.5 0 a8.75 8.75 0 1 0 -17.5 0z" fill="rgba(248, 248, 248, 1)"></path><path d="M52.5 437.5L87.5 472.5L122.5 472.5M17.5 437.5L52.5 472.5L87.5 507.5M-17.5 402.5L17.5 437.5L52.5 437.5L87.5 437.5L122.5 437.5L157.5 437.5" stroke="rgba(248, 248, 248, 1)" stroke-width="5.83"></path><path d="M148.75 437.5 a8.75 8.75 0 1 0 17.5 0 a8.75 8.75 0 1 0 -17.5 0zM113.75 472.5 a8.75 8.75 0 1 0 17.5 0 a8.75 8.75 0 1 0 -17.5 0zM78.75 507.5 a8.75 8.75 0 1 0 17.5 0 a8.75 8.75 0 1 0 -17.5 0z" fill="rgba(248, 248, 248, 1)"></path><path d="M192.5 122.5L227.5 157.5L262.5 157.5L297.5 157.5M367.5 122.5L402.5 87.5M87.5 122.5L122.5 87.5L157.5 87.5L192.5 87.5L227.5 87.5M-17.5 157.5L17.5 157.5L52.5 157.5L87.5 122.5L122.5 122.5L157.5 122.5L192.5 122.5L227.5 122.5L262.5 122.5L297.5 122.5L332.5 122.5L367.5 122.5L402.5 122.5L437.5 122.5" stroke="rgba(255, 255, 255, 1)" stroke-width="5.83"></path><path d="M428.75 122.5 a8.75 8.75 0 1 0 17.5 0 a8.75 8.75 0 1 0 -17.5 0zM288.75 157.5 a8.75 8.75 0 1 0 17.5 0 a8.75 8.75 0 1 0 -17.5 0zM393.75 87.5 a8.75 8.75 0 1 0 17.5 0 a8.75 8.75 0 1 0 -17.5 0zM218.75 87.5 a8.75 8.75 0 1 0 17.5 0 a8.75 8.75 0 1 0 -17.5 0z" fill="rgba(255, 255, 255, 1)"></path></g></g><defs><mask id="SvgjsMask1002"><rect width="1440" height="560" fill="#ffffff"></rect></mask><mask id="SvgjsMask1003"><rect width="1440" height="560" fill="white"></rect><path d="M398.12 297.5 a4.38 4.38 0 1 0 8.76 0 a4.38 4.38 0 1 0 -8.76 0zM118.12 332.5 a4.38 4.38 0 1 0 8.76 0 a4.38 4.38 0 1 0 -8.76 0zM223.12 262.5 a4.38 4.38 0 1 0 8.76 0 a4.38 4.38 0 1 0 -8.76 0zM433.12 332.5 a4.38 4.38 0 1 0 8.76 0 a4.38 4.38 0 1 0 -8.76 0z" fill="black"></path><path d="M118.12 227.5 a4.38 4.38 0 1 0 8.76 0 a4.38 4.38 0 1 0 -8.76 0zM118.12 262.5 a4.38 4.38 0 1 0 8.76 0 a4.38 4.38 0 1 0 -8.76 0z" fill="black"></path><path d="M293.12 402.5 a4.38 4.38 0 1 0 8.76 0 a4.38 4.38 0 1 0 -8.76 0zM258.12 332.5 a4.38 4.38 0 1 0 8.76 0 a4.38 4.38 0 1 0 -8.76 0zM398.12 367.5 a4.38 4.38 0 1 0 8.76 0 a4.38 4.38 0 1 0 -8.76 0zM188.12 332.5 a4.38 4.38 0 1 0 8.76 0 a4.38 4.38 0 1 0 -8.76 0z" fill="black"></path><path d="M118.12 192.5 a4.38 4.38 0 1 0 8.76 0 a4.38 4.38 0 1 0 -8.76 0z" fill="black"></path><path d="M643.12 437.5 a4.38 4.38 0 1 0 8.76 0 a4.38 4.38 0 1 0 -8.76 0zM538.12 402.5 a4.38 4.38 0 1 0 8.76 0 a4.38 4.38 0 1 0 -8.76 0zM538.12 472.5 a4.38 4.38 0 1 0 8.76 0 a4.38 4.38 0 1 0 -8.76 0zM433.12 472.5 a4.38 4.38 0 1 0 8.76 0 a4.38 4.38 0 1 0 -8.76 0zM328.12 507.5 a4.38 4.38 0 1 0 8.76 0 a4.38 4.38 0 1 0 -8.76 0zM643.12 472.5 a4.38 4.38 0 1 0 8.76 0 a4.38 4.38 0 1 0 -8.76 0z" fill="black"></path><path d="M118.12 157.5 a4.38 4.38 0 1 0 8.76 0 a4.38 4.38 0 1 0 -8.76 0z" fill="black"></path><path d="M153.12 437.5 a4.38 4.38 0 1 0 8.76 0 a4.38 4.38 0 1 0 -8.76 0zM118.12 472.5 a4.38 4.38 0 1 0 8.76 0 a4.38 4.38 0 1 0 -8.76 0zM83.12 507.5 a4.38 4.38 0 1 0 8.76 0 a4.38 4.38 0 1 0 -8.76 0z" fill="black"></path><path d="M433.12 122.5 a4.38 4.38 0 1 0 8.76 0 a4.38 4.38 0 1 0 -8.76 0zM293.12 157.5 a4.38 4.38 0 1 0 8.76 0 a4.38 4.38 0 1 0 -8.76 0zM398.12 87.5 a4.38 4.38 0 1 0 8.76 0 a4.38 4.38 0 1 0 -8.76 0zM223.12 87.5 a4.38 4.38 0 1 0 8.76 0 a4.38 4.38 0 1 0 -8.76 0z" fill="black"></path></mask></defs></svg>